<mxfile host="app.diagrams.net" modified="2023-10-27T08:11:30.085Z" agent="Mozilla/5.0 (Windows NT 10.0; Win64; x64) AppleWebKit/537.36 (KHTML, like Gecko) Chrome/118.0.0.0 Safari/537.36" etag="VImKjKlxJ28pBDB5FSGY" version="22.0.8" type="device">
  <diagram name="페이지-1" id="cCwl8LIfKbvLRUa88UwK">
    <mxGraphModel dx="2262" dy="659" grid="1" gridSize="10" guides="1" tooltips="1" connect="1" arrows="1" fold="1" page="1" pageScale="1" pageWidth="827" pageHeight="1169" math="0" shadow="0">
      <root>
        <mxCell id="0" />
        <mxCell id="1" parent="0" />
        <mxCell id="FIubQ1Pt_erhtiENu1x_-1" value="video" style="shape=table;startSize=30;container=1;collapsible=1;childLayout=tableLayout;fixedRows=1;rowLines=0;fontStyle=1;align=center;resizeLast=1;html=1;fillColor=#B2C9AB;strokeColor=#788AA3;swimlaneFillColor=#E6E6E6;strokeWidth=2;labelBackgroundColor=none;fontColor=#46495D;" parent="1" vertex="1">
          <mxGeometry x="200" y="480" width="240" height="270" as="geometry" />
        </mxCell>
        <mxCell id="FIubQ1Pt_erhtiENu1x_-5" value="" style="shape=tableRow;horizontal=0;startSize=0;swimlaneHead=0;swimlaneBody=0;fillColor=none;collapsible=0;dropTarget=0;points=[[0,0.5],[1,0.5]];portConstraint=eastwest;top=0;left=0;right=0;bottom=0;fontStyle=1;swimlaneFillColor=#E6E6E6;strokeWidth=2;labelBackgroundColor=none;strokeColor=#788AA3;fontColor=#46495D;" parent="FIubQ1Pt_erhtiENu1x_-1" vertex="1">
          <mxGeometry y="30" width="240" height="30" as="geometry" />
        </mxCell>
        <mxCell id="FIubQ1Pt_erhtiENu1x_-6" value="PK" style="shape=partialRectangle;connectable=0;fillColor=none;top=0;left=0;bottom=0;right=0;editable=1;overflow=hidden;whiteSpace=wrap;html=1;fontStyle=1;swimlaneFillColor=#E6E6E6;strokeWidth=2;labelBackgroundColor=none;strokeColor=#788AA3;fontColor=#46495D;" parent="FIubQ1Pt_erhtiENu1x_-5" vertex="1">
          <mxGeometry width="30" height="30" as="geometry">
            <mxRectangle width="30" height="30" as="alternateBounds" />
          </mxGeometry>
        </mxCell>
        <mxCell id="FIubQ1Pt_erhtiENu1x_-7" value="video_id INT A.C N.N" style="shape=partialRectangle;connectable=0;fillColor=none;top=0;left=0;bottom=0;right=0;align=left;spacingLeft=6;overflow=hidden;whiteSpace=wrap;html=1;fontStyle=1;swimlaneFillColor=#E6E6E6;strokeWidth=2;labelBackgroundColor=none;strokeColor=#788AA3;fontColor=#46495D;" parent="FIubQ1Pt_erhtiENu1x_-5" vertex="1">
          <mxGeometry x="30" width="210" height="30" as="geometry">
            <mxRectangle width="210" height="30" as="alternateBounds" />
          </mxGeometry>
        </mxCell>
        <mxCell id="FIubQ1Pt_erhtiENu1x_-95" value="" style="shape=tableRow;horizontal=0;startSize=0;swimlaneHead=0;swimlaneBody=0;fillColor=none;collapsible=0;dropTarget=0;points=[[0,0.5],[1,0.5]];portConstraint=eastwest;top=0;left=0;right=0;bottom=0;fontStyle=1;swimlaneFillColor=#E6E6E6;strokeWidth=2;labelBackgroundColor=none;strokeColor=#788AA3;fontColor=#46495D;" parent="FIubQ1Pt_erhtiENu1x_-1" vertex="1">
          <mxGeometry y="60" width="240" height="30" as="geometry" />
        </mxCell>
        <mxCell id="FIubQ1Pt_erhtiENu1x_-96" value="" style="shape=partialRectangle;connectable=0;fillColor=none;top=0;left=0;bottom=0;right=0;editable=1;overflow=hidden;whiteSpace=wrap;html=1;fontStyle=1;swimlaneFillColor=#E6E6E6;strokeWidth=2;labelBackgroundColor=none;strokeColor=#788AA3;fontColor=#46495D;" parent="FIubQ1Pt_erhtiENu1x_-95" vertex="1">
          <mxGeometry width="30" height="30" as="geometry">
            <mxRectangle width="30" height="30" as="alternateBounds" />
          </mxGeometry>
        </mxCell>
        <mxCell id="FIubQ1Pt_erhtiENu1x_-97" value="title VARCHAR(30) N.N" style="shape=partialRectangle;connectable=0;fillColor=none;top=0;left=0;bottom=0;right=0;align=left;spacingLeft=6;overflow=hidden;whiteSpace=wrap;html=1;fontStyle=1;swimlaneFillColor=#E6E6E6;strokeWidth=2;labelBackgroundColor=none;strokeColor=#788AA3;fontColor=#46495D;" parent="FIubQ1Pt_erhtiENu1x_-95" vertex="1">
          <mxGeometry x="30" width="210" height="30" as="geometry">
            <mxRectangle width="210" height="30" as="alternateBounds" />
          </mxGeometry>
        </mxCell>
        <mxCell id="FIubQ1Pt_erhtiENu1x_-8" value="" style="shape=tableRow;horizontal=0;startSize=0;swimlaneHead=0;swimlaneBody=0;fillColor=none;collapsible=0;dropTarget=0;points=[[0,0.5],[1,0.5]];portConstraint=eastwest;top=0;left=0;right=0;bottom=0;fontStyle=1;swimlaneFillColor=#E6E6E6;strokeWidth=2;labelBackgroundColor=none;strokeColor=#788AA3;fontColor=#46495D;" parent="FIubQ1Pt_erhtiENu1x_-1" vertex="1">
          <mxGeometry y="90" width="240" height="30" as="geometry" />
        </mxCell>
        <mxCell id="FIubQ1Pt_erhtiENu1x_-9" value="" style="shape=partialRectangle;connectable=0;fillColor=none;top=0;left=0;bottom=0;right=0;editable=1;overflow=hidden;whiteSpace=wrap;html=1;fontStyle=1;swimlaneFillColor=#E6E6E6;strokeWidth=2;labelBackgroundColor=none;strokeColor=#788AA3;fontColor=#46495D;" parent="FIubQ1Pt_erhtiENu1x_-8" vertex="1">
          <mxGeometry width="30" height="30" as="geometry">
            <mxRectangle width="30" height="30" as="alternateBounds" />
          </mxGeometry>
        </mxCell>
        <mxCell id="FIubQ1Pt_erhtiENu1x_-10" value="content TEXT N.N" style="shape=partialRectangle;connectable=0;fillColor=none;top=0;left=0;bottom=0;right=0;align=left;spacingLeft=6;overflow=hidden;whiteSpace=wrap;html=1;fontStyle=1;swimlaneFillColor=#E6E6E6;strokeWidth=2;labelBackgroundColor=none;strokeColor=#788AA3;fontColor=#46495D;" parent="FIubQ1Pt_erhtiENu1x_-8" vertex="1">
          <mxGeometry x="30" width="210" height="30" as="geometry">
            <mxRectangle width="210" height="30" as="alternateBounds" />
          </mxGeometry>
        </mxCell>
        <mxCell id="FIubQ1Pt_erhtiENu1x_-11" value="" style="shape=tableRow;horizontal=0;startSize=0;swimlaneHead=0;swimlaneBody=0;fillColor=none;collapsible=0;dropTarget=0;points=[[0,0.5],[1,0.5]];portConstraint=eastwest;top=0;left=0;right=0;bottom=0;fontStyle=1;swimlaneFillColor=#E6E6E6;strokeWidth=2;labelBackgroundColor=none;strokeColor=#788AA3;fontColor=#46495D;" parent="FIubQ1Pt_erhtiENu1x_-1" vertex="1">
          <mxGeometry y="120" width="240" height="30" as="geometry" />
        </mxCell>
        <mxCell id="FIubQ1Pt_erhtiENu1x_-12" value="" style="shape=partialRectangle;connectable=0;fillColor=none;top=0;left=0;bottom=0;right=0;editable=1;overflow=hidden;whiteSpace=wrap;html=1;fontStyle=1;swimlaneFillColor=#E6E6E6;strokeWidth=2;labelBackgroundColor=none;strokeColor=#788AA3;fontColor=#46495D;" parent="FIubQ1Pt_erhtiENu1x_-11" vertex="1">
          <mxGeometry width="30" height="30" as="geometry">
            <mxRectangle width="30" height="30" as="alternateBounds" />
          </mxGeometry>
        </mxCell>
        <mxCell id="FIubQ1Pt_erhtiENu1x_-13" value="part VARCHAR(20) N.N" style="shape=partialRectangle;connectable=0;fillColor=none;top=0;left=0;bottom=0;right=0;align=left;spacingLeft=6;overflow=hidden;whiteSpace=wrap;html=1;fontStyle=1;swimlaneFillColor=#E6E6E6;strokeWidth=2;labelBackgroundColor=none;strokeColor=#788AA3;fontColor=#46495D;" parent="FIubQ1Pt_erhtiENu1x_-11" vertex="1">
          <mxGeometry x="30" width="210" height="30" as="geometry">
            <mxRectangle width="210" height="30" as="alternateBounds" />
          </mxGeometry>
        </mxCell>
        <mxCell id="NWQVJ_j_wXv8ozggGAOu-1" value="" style="shape=tableRow;horizontal=0;startSize=0;swimlaneHead=0;swimlaneBody=0;fillColor=none;collapsible=0;dropTarget=0;points=[[0,0.5],[1,0.5]];portConstraint=eastwest;top=0;left=0;right=0;bottom=0;fontStyle=1;swimlaneFillColor=#E6E6E6;strokeWidth=2;labelBackgroundColor=none;strokeColor=#788AA3;fontColor=#46495D;" vertex="1" parent="FIubQ1Pt_erhtiENu1x_-1">
          <mxGeometry y="150" width="240" height="30" as="geometry" />
        </mxCell>
        <mxCell id="NWQVJ_j_wXv8ozggGAOu-2" value="" style="shape=partialRectangle;connectable=0;fillColor=none;top=0;left=0;bottom=0;right=0;editable=1;overflow=hidden;whiteSpace=wrap;html=1;fontStyle=1;swimlaneFillColor=#E6E6E6;strokeWidth=2;labelBackgroundColor=none;strokeColor=#788AA3;fontColor=#46495D;" vertex="1" parent="NWQVJ_j_wXv8ozggGAOu-1">
          <mxGeometry width="30" height="30" as="geometry">
            <mxRectangle width="30" height="30" as="alternateBounds" />
          </mxGeometry>
        </mxCell>
        <mxCell id="NWQVJ_j_wXv8ozggGAOu-3" value="creator VARCHAR(20) N.N" style="shape=partialRectangle;connectable=0;fillColor=none;top=0;left=0;bottom=0;right=0;align=left;spacingLeft=6;overflow=hidden;whiteSpace=wrap;html=1;fontStyle=1;swimlaneFillColor=#E6E6E6;strokeWidth=2;labelBackgroundColor=none;strokeColor=#788AA3;fontColor=#46495D;" vertex="1" parent="NWQVJ_j_wXv8ozggGAOu-1">
          <mxGeometry x="30" width="210" height="30" as="geometry">
            <mxRectangle width="210" height="30" as="alternateBounds" />
          </mxGeometry>
        </mxCell>
        <mxCell id="FIubQ1Pt_erhtiENu1x_-98" value="" style="shape=tableRow;horizontal=0;startSize=0;swimlaneHead=0;swimlaneBody=0;fillColor=none;collapsible=0;dropTarget=0;points=[[0,0.5],[1,0.5]];portConstraint=eastwest;top=0;left=0;right=0;bottom=0;fontStyle=1;swimlaneFillColor=#E6E6E6;strokeWidth=2;labelBackgroundColor=none;strokeColor=#788AA3;fontColor=#46495D;" parent="FIubQ1Pt_erhtiENu1x_-1" vertex="1">
          <mxGeometry y="180" width="240" height="30" as="geometry" />
        </mxCell>
        <mxCell id="FIubQ1Pt_erhtiENu1x_-99" value="" style="shape=partialRectangle;connectable=0;fillColor=none;top=0;left=0;bottom=0;right=0;editable=1;overflow=hidden;whiteSpace=wrap;html=1;fontStyle=1;swimlaneFillColor=#E6E6E6;strokeWidth=2;labelBackgroundColor=none;strokeColor=#788AA3;fontColor=#46495D;" parent="FIubQ1Pt_erhtiENu1x_-98" vertex="1">
          <mxGeometry width="30" height="30" as="geometry">
            <mxRectangle width="30" height="30" as="alternateBounds" />
          </mxGeometry>
        </mxCell>
        <mxCell id="FIubQ1Pt_erhtiENu1x_-100" value="link VARCHAR(300) N.N" style="shape=partialRectangle;connectable=0;fillColor=none;top=0;left=0;bottom=0;right=0;align=left;spacingLeft=6;overflow=hidden;whiteSpace=wrap;html=1;fontStyle=1;swimlaneFillColor=#E6E6E6;strokeWidth=2;labelBackgroundColor=none;strokeColor=#788AA3;fontColor=#46495D;" parent="FIubQ1Pt_erhtiENu1x_-98" vertex="1">
          <mxGeometry x="30" width="210" height="30" as="geometry">
            <mxRectangle width="210" height="30" as="alternateBounds" />
          </mxGeometry>
        </mxCell>
        <mxCell id="NWQVJ_j_wXv8ozggGAOu-4" value="" style="shape=tableRow;horizontal=0;startSize=0;swimlaneHead=0;swimlaneBody=0;fillColor=none;collapsible=0;dropTarget=0;points=[[0,0.5],[1,0.5]];portConstraint=eastwest;top=0;left=0;right=0;bottom=0;fontStyle=1;swimlaneFillColor=#E6E6E6;strokeWidth=2;labelBackgroundColor=none;strokeColor=#788AA3;fontColor=#46495D;" vertex="1" parent="FIubQ1Pt_erhtiENu1x_-1">
          <mxGeometry y="210" width="240" height="30" as="geometry" />
        </mxCell>
        <mxCell id="NWQVJ_j_wXv8ozggGAOu-5" value="" style="shape=partialRectangle;connectable=0;fillColor=none;top=0;left=0;bottom=0;right=0;editable=1;overflow=hidden;whiteSpace=wrap;html=1;fontStyle=1;swimlaneFillColor=#E6E6E6;strokeWidth=2;labelBackgroundColor=none;strokeColor=#788AA3;fontColor=#46495D;" vertex="1" parent="NWQVJ_j_wXv8ozggGAOu-4">
          <mxGeometry width="30" height="30" as="geometry">
            <mxRectangle width="30" height="30" as="alternateBounds" />
          </mxGeometry>
        </mxCell>
        <mxCell id="NWQVJ_j_wXv8ozggGAOu-6" value="viewcnt INT DEFAULT 0" style="shape=partialRectangle;connectable=0;fillColor=none;top=0;left=0;bottom=0;right=0;align=left;spacingLeft=6;overflow=hidden;whiteSpace=wrap;html=1;fontStyle=1;swimlaneFillColor=#E6E6E6;strokeWidth=2;labelBackgroundColor=none;strokeColor=#788AA3;fontColor=#46495D;" vertex="1" parent="NWQVJ_j_wXv8ozggGAOu-4">
          <mxGeometry x="30" width="210" height="30" as="geometry">
            <mxRectangle width="210" height="30" as="alternateBounds" />
          </mxGeometry>
        </mxCell>
        <mxCell id="FIubQ1Pt_erhtiENu1x_-101" value="" style="shape=tableRow;horizontal=0;startSize=0;swimlaneHead=0;swimlaneBody=0;fillColor=none;collapsible=0;dropTarget=0;points=[[0,0.5],[1,0.5]];portConstraint=eastwest;top=0;left=0;right=0;bottom=0;fontStyle=1;swimlaneFillColor=#E6E6E6;strokeWidth=2;labelBackgroundColor=none;strokeColor=#788AA3;fontColor=#46495D;" parent="FIubQ1Pt_erhtiENu1x_-1" vertex="1">
          <mxGeometry y="240" width="240" height="30" as="geometry" />
        </mxCell>
        <mxCell id="FIubQ1Pt_erhtiENu1x_-102" value="" style="shape=partialRectangle;connectable=0;fillColor=none;top=0;left=0;bottom=0;right=0;editable=1;overflow=hidden;whiteSpace=wrap;html=1;fontStyle=1;swimlaneFillColor=#E6E6E6;strokeWidth=2;labelBackgroundColor=none;strokeColor=#788AA3;fontColor=#46495D;" parent="FIubQ1Pt_erhtiENu1x_-101" vertex="1">
          <mxGeometry width="30" height="30" as="geometry">
            <mxRectangle width="30" height="30" as="alternateBounds" />
          </mxGeometry>
        </mxCell>
        <mxCell id="FIubQ1Pt_erhtiENu1x_-103" value="regdate &lt;font style=&quot;font-size: 11px;&quot;&gt;DATETIME DEFAULT NOW()&lt;/font&gt;" style="shape=partialRectangle;connectable=0;fillColor=none;top=0;left=0;bottom=0;right=0;align=left;spacingLeft=6;overflow=hidden;whiteSpace=wrap;html=1;fontStyle=1;swimlaneFillColor=#E6E6E6;strokeWidth=2;labelBackgroundColor=none;strokeColor=#788AA3;fontColor=#46495D;" parent="FIubQ1Pt_erhtiENu1x_-101" vertex="1">
          <mxGeometry x="30" width="210" height="30" as="geometry">
            <mxRectangle width="210" height="30" as="alternateBounds" />
          </mxGeometry>
        </mxCell>
        <mxCell id="FIubQ1Pt_erhtiENu1x_-14" value="user" style="shape=table;startSize=30;container=1;collapsible=1;childLayout=tableLayout;fixedRows=1;rowLines=0;fontStyle=1;align=center;resizeLast=1;html=1;fillColor=#B2C9AB;strokeColor=#788AA3;swimlaneFillColor=#E6E6E6;strokeWidth=2;labelBackgroundColor=none;fontColor=#46495D;" parent="1" vertex="1">
          <mxGeometry x="200" y="120" width="240" height="180" as="geometry" />
        </mxCell>
        <mxCell id="FIubQ1Pt_erhtiENu1x_-18" value="" style="shape=tableRow;horizontal=0;startSize=0;swimlaneHead=0;swimlaneBody=0;fillColor=none;collapsible=0;dropTarget=0;points=[[0,0.5],[1,0.5]];portConstraint=eastwest;top=0;left=0;right=0;bottom=0;fontStyle=1;swimlaneFillColor=#E6E6E6;strokeWidth=2;labelBackgroundColor=none;strokeColor=#788AA3;fontColor=#46495D;" parent="FIubQ1Pt_erhtiENu1x_-14" vertex="1">
          <mxGeometry y="30" width="240" height="30" as="geometry" />
        </mxCell>
        <mxCell id="FIubQ1Pt_erhtiENu1x_-19" value="PK" style="shape=partialRectangle;connectable=0;fillColor=none;top=0;left=0;bottom=0;right=0;editable=1;overflow=hidden;whiteSpace=wrap;html=1;fontStyle=1;swimlaneFillColor=#E6E6E6;strokeWidth=2;labelBackgroundColor=none;strokeColor=#788AA3;fontColor=#46495D;" parent="FIubQ1Pt_erhtiENu1x_-18" vertex="1">
          <mxGeometry width="30" height="30" as="geometry">
            <mxRectangle width="30" height="30" as="alternateBounds" />
          </mxGeometry>
        </mxCell>
        <mxCell id="FIubQ1Pt_erhtiENu1x_-20" value="&lt;span&gt;user_id VARCHAR(20) N.N&lt;/span&gt;" style="shape=partialRectangle;connectable=0;fillColor=none;top=0;left=0;bottom=0;right=0;align=left;spacingLeft=6;overflow=hidden;whiteSpace=wrap;html=1;fontStyle=1;swimlaneFillColor=#E6E6E6;strokeWidth=2;labelBackgroundColor=none;strokeColor=#788AA3;fontColor=#46495D;" parent="FIubQ1Pt_erhtiENu1x_-18" vertex="1">
          <mxGeometry x="30" width="210" height="30" as="geometry">
            <mxRectangle width="210" height="30" as="alternateBounds" />
          </mxGeometry>
        </mxCell>
        <mxCell id="FIubQ1Pt_erhtiENu1x_-21" value="" style="shape=tableRow;horizontal=0;startSize=0;swimlaneHead=0;swimlaneBody=0;fillColor=none;collapsible=0;dropTarget=0;points=[[0,0.5],[1,0.5]];portConstraint=eastwest;top=0;left=0;right=0;bottom=0;fontStyle=1;swimlaneFillColor=#E6E6E6;strokeWidth=2;labelBackgroundColor=none;strokeColor=#788AA3;fontColor=#46495D;" parent="FIubQ1Pt_erhtiENu1x_-14" vertex="1">
          <mxGeometry y="60" width="240" height="30" as="geometry" />
        </mxCell>
        <mxCell id="FIubQ1Pt_erhtiENu1x_-22" value="" style="shape=partialRectangle;connectable=0;fillColor=none;top=0;left=0;bottom=0;right=0;editable=1;overflow=hidden;whiteSpace=wrap;html=1;fontStyle=1;swimlaneFillColor=#E6E6E6;strokeWidth=2;labelBackgroundColor=none;strokeColor=#788AA3;fontColor=#46495D;" parent="FIubQ1Pt_erhtiENu1x_-21" vertex="1">
          <mxGeometry width="30" height="30" as="geometry">
            <mxRectangle width="30" height="30" as="alternateBounds" />
          </mxGeometry>
        </mxCell>
        <mxCell id="FIubQ1Pt_erhtiENu1x_-23" value="password VARCHAR(20) N.N" style="shape=partialRectangle;connectable=0;fillColor=none;top=0;left=0;bottom=0;right=0;align=left;spacingLeft=6;overflow=hidden;whiteSpace=wrap;html=1;fontStyle=1;swimlaneFillColor=#E6E6E6;strokeWidth=2;labelBackgroundColor=none;strokeColor=#788AA3;fontColor=#46495D;" parent="FIubQ1Pt_erhtiENu1x_-21" vertex="1">
          <mxGeometry x="30" width="210" height="30" as="geometry">
            <mxRectangle width="210" height="30" as="alternateBounds" />
          </mxGeometry>
        </mxCell>
        <mxCell id="FIubQ1Pt_erhtiENu1x_-71" value="" style="shape=tableRow;horizontal=0;startSize=0;swimlaneHead=0;swimlaneBody=0;fillColor=none;collapsible=0;dropTarget=0;points=[[0,0.5],[1,0.5]];portConstraint=eastwest;top=0;left=0;right=0;bottom=0;fontStyle=1;swimlaneFillColor=#E6E6E6;strokeWidth=2;labelBackgroundColor=none;strokeColor=#788AA3;fontColor=#46495D;" parent="FIubQ1Pt_erhtiENu1x_-14" vertex="1">
          <mxGeometry y="90" width="240" height="30" as="geometry" />
        </mxCell>
        <mxCell id="FIubQ1Pt_erhtiENu1x_-72" value="" style="shape=partialRectangle;connectable=0;fillColor=none;top=0;left=0;bottom=0;right=0;editable=1;overflow=hidden;whiteSpace=wrap;html=1;fontStyle=1;swimlaneFillColor=#E6E6E6;strokeWidth=2;labelBackgroundColor=none;strokeColor=#788AA3;fontColor=#46495D;" parent="FIubQ1Pt_erhtiENu1x_-71" vertex="1">
          <mxGeometry width="30" height="30" as="geometry">
            <mxRectangle width="30" height="30" as="alternateBounds" />
          </mxGeometry>
        </mxCell>
        <mxCell id="FIubQ1Pt_erhtiENu1x_-73" value="name VARCHAR(20) N.N" style="shape=partialRectangle;connectable=0;fillColor=none;top=0;left=0;bottom=0;right=0;align=left;spacingLeft=6;overflow=hidden;whiteSpace=wrap;html=1;fontStyle=1;swimlaneFillColor=#E6E6E6;strokeWidth=2;labelBackgroundColor=none;strokeColor=#788AA3;fontColor=#46495D;" parent="FIubQ1Pt_erhtiENu1x_-71" vertex="1">
          <mxGeometry x="30" width="210" height="30" as="geometry">
            <mxRectangle width="210" height="30" as="alternateBounds" />
          </mxGeometry>
        </mxCell>
        <mxCell id="FIubQ1Pt_erhtiENu1x_-77" value="" style="shape=tableRow;horizontal=0;startSize=0;swimlaneHead=0;swimlaneBody=0;fillColor=none;collapsible=0;dropTarget=0;points=[[0,0.5],[1,0.5]];portConstraint=eastwest;top=0;left=0;right=0;bottom=0;fontStyle=1;swimlaneFillColor=#E6E6E6;strokeWidth=2;labelBackgroundColor=none;strokeColor=#788AA3;fontColor=#46495D;" parent="FIubQ1Pt_erhtiENu1x_-14" vertex="1">
          <mxGeometry y="120" width="240" height="30" as="geometry" />
        </mxCell>
        <mxCell id="FIubQ1Pt_erhtiENu1x_-78" value="" style="shape=partialRectangle;connectable=0;fillColor=none;top=0;left=0;bottom=0;right=0;editable=1;overflow=hidden;whiteSpace=wrap;html=1;fontStyle=1;swimlaneFillColor=#E6E6E6;strokeWidth=2;labelBackgroundColor=none;strokeColor=#788AA3;fontColor=#46495D;" parent="FIubQ1Pt_erhtiENu1x_-77" vertex="1">
          <mxGeometry width="30" height="30" as="geometry">
            <mxRectangle width="30" height="30" as="alternateBounds" />
          </mxGeometry>
        </mxCell>
        <mxCell id="FIubQ1Pt_erhtiENu1x_-79" value="nickname VARCHAR(20) N.N" style="shape=partialRectangle;connectable=0;fillColor=none;top=0;left=0;bottom=0;right=0;align=left;spacingLeft=6;overflow=hidden;whiteSpace=wrap;html=1;fontStyle=1;swimlaneFillColor=#E6E6E6;strokeWidth=2;labelBackgroundColor=none;strokeColor=#788AA3;fontColor=#46495D;" parent="FIubQ1Pt_erhtiENu1x_-77" vertex="1">
          <mxGeometry x="30" width="210" height="30" as="geometry">
            <mxRectangle width="210" height="30" as="alternateBounds" />
          </mxGeometry>
        </mxCell>
        <mxCell id="FIubQ1Pt_erhtiENu1x_-80" value="" style="shape=tableRow;horizontal=0;startSize=0;swimlaneHead=0;swimlaneBody=0;fillColor=none;collapsible=0;dropTarget=0;points=[[0,0.5],[1,0.5]];portConstraint=eastwest;top=0;left=0;right=0;bottom=0;fontStyle=1;swimlaneFillColor=#E6E6E6;strokeWidth=2;labelBackgroundColor=none;strokeColor=#788AA3;fontColor=#46495D;" parent="FIubQ1Pt_erhtiENu1x_-14" vertex="1">
          <mxGeometry y="150" width="240" height="30" as="geometry" />
        </mxCell>
        <mxCell id="FIubQ1Pt_erhtiENu1x_-81" value="" style="shape=partialRectangle;connectable=0;fillColor=none;top=0;left=0;bottom=0;right=0;editable=1;overflow=hidden;whiteSpace=wrap;html=1;fontStyle=1;swimlaneFillColor=#E6E6E6;strokeWidth=2;labelBackgroundColor=none;strokeColor=#788AA3;fontColor=#46495D;" parent="FIubQ1Pt_erhtiENu1x_-80" vertex="1">
          <mxGeometry width="30" height="30" as="geometry">
            <mxRectangle width="30" height="30" as="alternateBounds" />
          </mxGeometry>
        </mxCell>
        <mxCell id="FIubQ1Pt_erhtiENu1x_-82" value="birthdate DATE" style="shape=partialRectangle;connectable=0;fillColor=none;top=0;left=0;bottom=0;right=0;align=left;spacingLeft=6;overflow=hidden;whiteSpace=wrap;html=1;fontStyle=1;swimlaneFillColor=#E6E6E6;strokeWidth=2;labelBackgroundColor=none;strokeColor=#788AA3;fontColor=#46495D;" parent="FIubQ1Pt_erhtiENu1x_-80" vertex="1">
          <mxGeometry x="30" width="210" height="30" as="geometry">
            <mxRectangle width="210" height="30" as="alternateBounds" />
          </mxGeometry>
        </mxCell>
        <mxCell id="FIubQ1Pt_erhtiENu1x_-27" value="review" style="shape=table;startSize=30;container=1;collapsible=1;childLayout=tableLayout;fixedRows=1;rowLines=0;fontStyle=1;align=center;resizeLast=1;html=1;fillColor=#B2C9AB;strokeColor=#788AA3;strokeWidth=2;swimlaneFillColor=#E6E6E6;labelBackgroundColor=none;fontColor=#46495D;" parent="1" vertex="1">
          <mxGeometry x="560" y="320" width="240" height="240" as="geometry" />
        </mxCell>
        <mxCell id="FIubQ1Pt_erhtiENu1x_-31" value="" style="shape=tableRow;horizontal=0;startSize=0;swimlaneHead=0;swimlaneBody=0;fillColor=none;collapsible=0;dropTarget=0;points=[[0,0.5],[1,0.5]];portConstraint=eastwest;top=0;left=0;right=0;bottom=0;fontStyle=1;strokeWidth=2;swimlaneFillColor=#E6E6E6;labelBackgroundColor=none;strokeColor=#788AA3;fontColor=#46495D;" parent="FIubQ1Pt_erhtiENu1x_-27" vertex="1">
          <mxGeometry y="30" width="240" height="30" as="geometry" />
        </mxCell>
        <mxCell id="FIubQ1Pt_erhtiENu1x_-32" value="PK" style="shape=partialRectangle;connectable=0;fillColor=none;top=0;left=0;bottom=0;right=0;editable=1;overflow=hidden;whiteSpace=wrap;html=1;fontStyle=1;strokeWidth=2;swimlaneFillColor=#E6E6E6;labelBackgroundColor=none;strokeColor=#788AA3;fontColor=#46495D;" parent="FIubQ1Pt_erhtiENu1x_-31" vertex="1">
          <mxGeometry width="30" height="30" as="geometry">
            <mxRectangle width="30" height="30" as="alternateBounds" />
          </mxGeometry>
        </mxCell>
        <mxCell id="FIubQ1Pt_erhtiENu1x_-33" value="review_id INT A.C N.N" style="shape=partialRectangle;connectable=0;fillColor=none;top=0;left=0;bottom=0;right=0;align=left;spacingLeft=6;overflow=hidden;whiteSpace=wrap;html=1;fontStyle=1;strokeWidth=2;swimlaneFillColor=#E6E6E6;labelBackgroundColor=none;strokeColor=#788AA3;fontColor=#46495D;" parent="FIubQ1Pt_erhtiENu1x_-31" vertex="1">
          <mxGeometry x="30" width="210" height="30" as="geometry">
            <mxRectangle width="210" height="30" as="alternateBounds" />
          </mxGeometry>
        </mxCell>
        <mxCell id="FIubQ1Pt_erhtiENu1x_-34" value="" style="shape=tableRow;horizontal=0;startSize=0;swimlaneHead=0;swimlaneBody=0;fillColor=none;collapsible=0;dropTarget=0;points=[[0,0.5],[1,0.5]];portConstraint=eastwest;top=0;left=0;right=0;bottom=0;fontStyle=1;strokeWidth=2;swimlaneFillColor=#E6E6E6;labelBackgroundColor=none;strokeColor=#788AA3;fontColor=#46495D;" parent="FIubQ1Pt_erhtiENu1x_-27" vertex="1">
          <mxGeometry y="60" width="240" height="30" as="geometry" />
        </mxCell>
        <mxCell id="FIubQ1Pt_erhtiENu1x_-35" value="FK" style="shape=partialRectangle;connectable=0;fillColor=none;top=0;left=0;bottom=0;right=0;editable=1;overflow=hidden;whiteSpace=wrap;html=1;fontStyle=1;strokeWidth=2;swimlaneFillColor=#E6E6E6;labelBackgroundColor=none;strokeColor=#788AA3;fontColor=#46495D;" parent="FIubQ1Pt_erhtiENu1x_-34" vertex="1">
          <mxGeometry width="30" height="30" as="geometry">
            <mxRectangle width="30" height="30" as="alternateBounds" />
          </mxGeometry>
        </mxCell>
        <mxCell id="FIubQ1Pt_erhtiENu1x_-36" value="user_id VARCHAR(20) N.N" style="shape=partialRectangle;connectable=0;fillColor=none;top=0;left=0;bottom=0;right=0;align=left;spacingLeft=6;overflow=hidden;whiteSpace=wrap;html=1;fontStyle=1;strokeWidth=2;swimlaneFillColor=#E6E6E6;labelBackgroundColor=none;strokeColor=#788AA3;fontColor=#46495D;" parent="FIubQ1Pt_erhtiENu1x_-34" vertex="1">
          <mxGeometry x="30" width="210" height="30" as="geometry">
            <mxRectangle width="210" height="30" as="alternateBounds" />
          </mxGeometry>
        </mxCell>
        <mxCell id="FIubQ1Pt_erhtiENu1x_-37" value="" style="shape=tableRow;horizontal=0;startSize=0;swimlaneHead=0;swimlaneBody=0;fillColor=none;collapsible=0;dropTarget=0;points=[[0,0.5],[1,0.5]];portConstraint=eastwest;top=0;left=0;right=0;bottom=0;fontStyle=1;strokeWidth=2;swimlaneFillColor=#E6E6E6;labelBackgroundColor=none;strokeColor=#788AA3;fontColor=#46495D;" parent="FIubQ1Pt_erhtiENu1x_-27" vertex="1">
          <mxGeometry y="90" width="240" height="30" as="geometry" />
        </mxCell>
        <mxCell id="FIubQ1Pt_erhtiENu1x_-38" value="FK" style="shape=partialRectangle;connectable=0;fillColor=none;top=0;left=0;bottom=0;right=0;editable=1;overflow=hidden;whiteSpace=wrap;html=1;fontStyle=1;strokeWidth=2;swimlaneFillColor=#E6E6E6;labelBackgroundColor=none;strokeColor=#788AA3;fontColor=#46495D;" parent="FIubQ1Pt_erhtiENu1x_-37" vertex="1">
          <mxGeometry width="30" height="30" as="geometry">
            <mxRectangle width="30" height="30" as="alternateBounds" />
          </mxGeometry>
        </mxCell>
        <mxCell id="FIubQ1Pt_erhtiENu1x_-39" value="video_id INT&amp;nbsp;N.N" style="shape=partialRectangle;connectable=0;fillColor=none;top=0;left=0;bottom=0;right=0;align=left;spacingLeft=6;overflow=hidden;whiteSpace=wrap;html=1;fontStyle=1;strokeWidth=2;swimlaneFillColor=#E6E6E6;labelBackgroundColor=none;strokeColor=#788AA3;fontColor=#46495D;" parent="FIubQ1Pt_erhtiENu1x_-37" vertex="1">
          <mxGeometry x="30" width="210" height="30" as="geometry">
            <mxRectangle width="210" height="30" as="alternateBounds" />
          </mxGeometry>
        </mxCell>
        <mxCell id="FIubQ1Pt_erhtiENu1x_-107" value="" style="shape=tableRow;horizontal=0;startSize=0;swimlaneHead=0;swimlaneBody=0;fillColor=none;collapsible=0;dropTarget=0;points=[[0,0.5],[1,0.5]];portConstraint=eastwest;top=0;left=0;right=0;bottom=0;fontStyle=1;strokeWidth=2;swimlaneFillColor=#E6E6E6;labelBackgroundColor=none;strokeColor=#788AA3;fontColor=#46495D;" parent="FIubQ1Pt_erhtiENu1x_-27" vertex="1">
          <mxGeometry y="120" width="240" height="30" as="geometry" />
        </mxCell>
        <mxCell id="FIubQ1Pt_erhtiENu1x_-108" value="" style="shape=partialRectangle;connectable=0;fillColor=none;top=0;left=0;bottom=0;right=0;editable=1;overflow=hidden;whiteSpace=wrap;html=1;fontStyle=1;strokeWidth=2;swimlaneFillColor=#E6E6E6;labelBackgroundColor=none;strokeColor=#788AA3;fontColor=#46495D;" parent="FIubQ1Pt_erhtiENu1x_-107" vertex="1">
          <mxGeometry width="30" height="30" as="geometry">
            <mxRectangle width="30" height="30" as="alternateBounds" />
          </mxGeometry>
        </mxCell>
        <mxCell id="FIubQ1Pt_erhtiENu1x_-109" value="title VARCHAR(30) N.N" style="shape=partialRectangle;connectable=0;fillColor=none;top=0;left=0;bottom=0;right=0;align=left;spacingLeft=6;overflow=hidden;whiteSpace=wrap;html=1;fontStyle=1;strokeWidth=2;swimlaneFillColor=#E6E6E6;labelBackgroundColor=none;strokeColor=#788AA3;fontColor=#46495D;" parent="FIubQ1Pt_erhtiENu1x_-107" vertex="1">
          <mxGeometry x="30" width="210" height="30" as="geometry">
            <mxRectangle width="210" height="30" as="alternateBounds" />
          </mxGeometry>
        </mxCell>
        <mxCell id="FIubQ1Pt_erhtiENu1x_-110" value="" style="shape=tableRow;horizontal=0;startSize=0;swimlaneHead=0;swimlaneBody=0;fillColor=none;collapsible=0;dropTarget=0;points=[[0,0.5],[1,0.5]];portConstraint=eastwest;top=0;left=0;right=0;bottom=0;fontStyle=1;strokeWidth=2;swimlaneFillColor=#E6E6E6;labelBackgroundColor=none;strokeColor=#788AA3;fontColor=#46495D;" parent="FIubQ1Pt_erhtiENu1x_-27" vertex="1">
          <mxGeometry y="150" width="240" height="30" as="geometry" />
        </mxCell>
        <mxCell id="FIubQ1Pt_erhtiENu1x_-111" value="" style="shape=partialRectangle;connectable=0;fillColor=none;top=0;left=0;bottom=0;right=0;editable=1;overflow=hidden;whiteSpace=wrap;html=1;fontStyle=1;strokeWidth=2;swimlaneFillColor=#E6E6E6;labelBackgroundColor=none;strokeColor=#788AA3;fontColor=#46495D;" parent="FIubQ1Pt_erhtiENu1x_-110" vertex="1">
          <mxGeometry width="30" height="30" as="geometry">
            <mxRectangle width="30" height="30" as="alternateBounds" />
          </mxGeometry>
        </mxCell>
        <mxCell id="FIubQ1Pt_erhtiENu1x_-112" value="content TEXT N.N" style="shape=partialRectangle;connectable=0;fillColor=none;top=0;left=0;bottom=0;right=0;align=left;spacingLeft=6;overflow=hidden;whiteSpace=wrap;html=1;fontStyle=1;strokeWidth=2;swimlaneFillColor=#E6E6E6;labelBackgroundColor=none;strokeColor=#788AA3;fontColor=#46495D;" parent="FIubQ1Pt_erhtiENu1x_-110" vertex="1">
          <mxGeometry x="30" width="210" height="30" as="geometry">
            <mxRectangle width="210" height="30" as="alternateBounds" />
          </mxGeometry>
        </mxCell>
        <mxCell id="FIubQ1Pt_erhtiENu1x_-113" value="" style="shape=tableRow;horizontal=0;startSize=0;swimlaneHead=0;swimlaneBody=0;fillColor=none;collapsible=0;dropTarget=0;points=[[0,0.5],[1,0.5]];portConstraint=eastwest;top=0;left=0;right=0;bottom=0;fontStyle=1;strokeWidth=2;swimlaneFillColor=#E6E6E6;labelBackgroundColor=none;strokeColor=#788AA3;fontColor=#46495D;" parent="FIubQ1Pt_erhtiENu1x_-27" vertex="1">
          <mxGeometry y="180" width="240" height="30" as="geometry" />
        </mxCell>
        <mxCell id="FIubQ1Pt_erhtiENu1x_-114" value="" style="shape=partialRectangle;connectable=0;fillColor=none;top=0;left=0;bottom=0;right=0;editable=1;overflow=hidden;whiteSpace=wrap;html=1;fontStyle=1;strokeWidth=2;swimlaneFillColor=#E6E6E6;labelBackgroundColor=none;strokeColor=#788AA3;fontColor=#46495D;" parent="FIubQ1Pt_erhtiENu1x_-113" vertex="1">
          <mxGeometry width="30" height="30" as="geometry">
            <mxRectangle width="30" height="30" as="alternateBounds" />
          </mxGeometry>
        </mxCell>
        <mxCell id="FIubQ1Pt_erhtiENu1x_-115" value="viewcnt INT DEFAULT 0" style="shape=partialRectangle;connectable=0;fillColor=none;top=0;left=0;bottom=0;right=0;align=left;spacingLeft=6;overflow=hidden;whiteSpace=wrap;html=1;fontStyle=1;strokeWidth=2;swimlaneFillColor=#E6E6E6;labelBackgroundColor=none;strokeColor=#788AA3;fontColor=#46495D;" parent="FIubQ1Pt_erhtiENu1x_-113" vertex="1">
          <mxGeometry x="30" width="210" height="30" as="geometry">
            <mxRectangle width="210" height="30" as="alternateBounds" />
          </mxGeometry>
        </mxCell>
        <mxCell id="FIubQ1Pt_erhtiENu1x_-116" value="" style="shape=tableRow;horizontal=0;startSize=0;swimlaneHead=0;swimlaneBody=0;fillColor=none;collapsible=0;dropTarget=0;points=[[0,0.5],[1,0.5]];portConstraint=eastwest;top=0;left=0;right=0;bottom=0;fontStyle=1;strokeWidth=2;swimlaneFillColor=#E6E6E6;labelBackgroundColor=none;strokeColor=#788AA3;fontColor=#46495D;" parent="FIubQ1Pt_erhtiENu1x_-27" vertex="1">
          <mxGeometry y="210" width="240" height="30" as="geometry" />
        </mxCell>
        <mxCell id="FIubQ1Pt_erhtiENu1x_-117" value="" style="shape=partialRectangle;connectable=0;fillColor=none;top=0;left=0;bottom=0;right=0;editable=1;overflow=hidden;whiteSpace=wrap;html=1;fontStyle=1;strokeWidth=2;swimlaneFillColor=#E6E6E6;labelBackgroundColor=none;strokeColor=#788AA3;fontColor=#46495D;" parent="FIubQ1Pt_erhtiENu1x_-116" vertex="1">
          <mxGeometry width="30" height="30" as="geometry">
            <mxRectangle width="30" height="30" as="alternateBounds" />
          </mxGeometry>
        </mxCell>
        <mxCell id="FIubQ1Pt_erhtiENu1x_-118" value="regdate &lt;font style=&quot;font-size: 11px;&quot;&gt;DATETIME DEFAULT NOW()&lt;/font&gt;" style="shape=partialRectangle;connectable=0;fillColor=none;top=0;left=0;bottom=0;right=0;align=left;spacingLeft=6;overflow=hidden;whiteSpace=wrap;html=1;fontStyle=1;strokeWidth=2;swimlaneFillColor=#E6E6E6;labelBackgroundColor=none;strokeColor=#788AA3;fontColor=#46495D;" parent="FIubQ1Pt_erhtiENu1x_-116" vertex="1">
          <mxGeometry x="30" width="210" height="30" as="geometry">
            <mxRectangle width="210" height="30" as="alternateBounds" />
          </mxGeometry>
        </mxCell>
        <mxCell id="FIubQ1Pt_erhtiENu1x_-120" value="" style="edgeStyle=entityRelationEdgeStyle;fontSize=12;html=1;endArrow=ERzeroToMany;startArrow=ERmandOne;rounded=0;strokeColor=#788AA3;fontColor=#46495D;fillColor=#B2C9AB;" parent="1" source="FIubQ1Pt_erhtiENu1x_-18" target="FIubQ1Pt_erhtiENu1x_-34" edge="1">
          <mxGeometry width="100" height="100" relative="1" as="geometry">
            <mxPoint y="180" as="sourcePoint" />
            <mxPoint x="100" y="80" as="targetPoint" />
            <Array as="points">
              <mxPoint x="20" y="-120" />
              <mxPoint x="-30" y="100" />
              <mxPoint x="350" y="460" />
              <mxPoint x="410" y="450" />
            </Array>
          </mxGeometry>
        </mxCell>
        <mxCell id="FIubQ1Pt_erhtiENu1x_-121" value="" style="edgeStyle=entityRelationEdgeStyle;fontSize=12;html=1;endArrow=ERzeroToMany;startArrow=ERmandOne;rounded=0;strokeColor=#788AA3;fontColor=#46495D;fillColor=#B2C9AB;" parent="1" source="FIubQ1Pt_erhtiENu1x_-5" target="FIubQ1Pt_erhtiENu1x_-37" edge="1">
          <mxGeometry width="100" height="100" relative="1" as="geometry">
            <mxPoint x="210" y="400" as="sourcePoint" />
            <mxPoint x="290" y="710" as="targetPoint" />
            <Array as="points">
              <mxPoint x="-130" y="115" />
              <mxPoint x="-180" y="335" />
              <mxPoint x="200" y="695" />
              <mxPoint x="260" y="685" />
            </Array>
          </mxGeometry>
        </mxCell>
        <mxCell id="yMgoRq2WjAfj9UwGe6Io-4" value="&lt;div style=&quot;text-align: left; font-size: 19px;&quot;&gt;&lt;font style=&quot;font-size: 19px; background-color: rgb(230, 230, 230);&quot; face=&quot;Helvetica&quot;&gt;N.N = NOT NULL&lt;/font&gt;&lt;/div&gt;&lt;div style=&quot;text-align: left; font-size: 19px;&quot;&gt;&lt;font style=&quot;font-size: 19px; background-color: rgb(230, 230, 230);&quot; face=&quot;Helvetica&quot;&gt;A.C =&amp;nbsp;AUTO_INCREMENT&lt;/font&gt;&lt;/div&gt;" style="text;strokeColor=none;fillColor=none;html=1;fontSize=20;fontStyle=1;verticalAlign=middle;align=center;fontFamily=Architects Daughter;" parent="1" vertex="1">
          <mxGeometry x="290" y="360" width="100" height="40" as="geometry" />
        </mxCell>
        <mxCell id="NWQVJ_j_wXv8ozggGAOu-7" value="wishlist" style="shape=table;startSize=30;container=1;collapsible=1;childLayout=tableLayout;fixedRows=1;rowLines=0;fontStyle=1;align=center;resizeLast=1;html=1;fillColor=#B2C9AB;strokeColor=#788AA3;strokeWidth=2;swimlaneFillColor=#E6E6E6;labelBackgroundColor=none;fontColor=#46495D;" vertex="1" parent="1">
          <mxGeometry x="-120" y="320" width="240" height="120" as="geometry" />
        </mxCell>
        <mxCell id="NWQVJ_j_wXv8ozggGAOu-8" value="" style="shape=tableRow;horizontal=0;startSize=0;swimlaneHead=0;swimlaneBody=0;fillColor=none;collapsible=0;dropTarget=0;points=[[0,0.5],[1,0.5]];portConstraint=eastwest;top=0;left=0;right=0;bottom=0;fontStyle=1;strokeWidth=2;swimlaneFillColor=#E6E6E6;labelBackgroundColor=none;strokeColor=#788AA3;fontColor=#46495D;" vertex="1" parent="NWQVJ_j_wXv8ozggGAOu-7">
          <mxGeometry y="30" width="240" height="30" as="geometry" />
        </mxCell>
        <mxCell id="NWQVJ_j_wXv8ozggGAOu-9" value="PK" style="shape=partialRectangle;connectable=0;fillColor=none;top=0;left=0;bottom=0;right=0;editable=1;overflow=hidden;whiteSpace=wrap;html=1;fontStyle=1;strokeWidth=2;swimlaneFillColor=#E6E6E6;labelBackgroundColor=none;strokeColor=#788AA3;fontColor=#46495D;" vertex="1" parent="NWQVJ_j_wXv8ozggGAOu-8">
          <mxGeometry width="30" height="30" as="geometry">
            <mxRectangle width="30" height="30" as="alternateBounds" />
          </mxGeometry>
        </mxCell>
        <mxCell id="NWQVJ_j_wXv8ozggGAOu-10" value="wishlist_id INT A.C N.N" style="shape=partialRectangle;connectable=0;fillColor=none;top=0;left=0;bottom=0;right=0;align=left;spacingLeft=6;overflow=hidden;whiteSpace=wrap;html=1;fontStyle=1;strokeWidth=2;swimlaneFillColor=#E6E6E6;labelBackgroundColor=none;strokeColor=#788AA3;fontColor=#46495D;" vertex="1" parent="NWQVJ_j_wXv8ozggGAOu-8">
          <mxGeometry x="30" width="210" height="30" as="geometry">
            <mxRectangle width="210" height="30" as="alternateBounds" />
          </mxGeometry>
        </mxCell>
        <mxCell id="NWQVJ_j_wXv8ozggGAOu-11" value="" style="shape=tableRow;horizontal=0;startSize=0;swimlaneHead=0;swimlaneBody=0;fillColor=none;collapsible=0;dropTarget=0;points=[[0,0.5],[1,0.5]];portConstraint=eastwest;top=0;left=0;right=0;bottom=0;fontStyle=1;strokeWidth=2;swimlaneFillColor=#E6E6E6;labelBackgroundColor=none;strokeColor=#788AA3;fontColor=#46495D;" vertex="1" parent="NWQVJ_j_wXv8ozggGAOu-7">
          <mxGeometry y="60" width="240" height="30" as="geometry" />
        </mxCell>
        <mxCell id="NWQVJ_j_wXv8ozggGAOu-12" value="FK" style="shape=partialRectangle;connectable=0;fillColor=none;top=0;left=0;bottom=0;right=0;editable=1;overflow=hidden;whiteSpace=wrap;html=1;fontStyle=1;strokeWidth=2;swimlaneFillColor=#E6E6E6;labelBackgroundColor=none;strokeColor=#788AA3;fontColor=#46495D;" vertex="1" parent="NWQVJ_j_wXv8ozggGAOu-11">
          <mxGeometry width="30" height="30" as="geometry">
            <mxRectangle width="30" height="30" as="alternateBounds" />
          </mxGeometry>
        </mxCell>
        <mxCell id="NWQVJ_j_wXv8ozggGAOu-13" value="user_id VARCHAR(20) N.N" style="shape=partialRectangle;connectable=0;fillColor=none;top=0;left=0;bottom=0;right=0;align=left;spacingLeft=6;overflow=hidden;whiteSpace=wrap;html=1;fontStyle=1;strokeWidth=2;swimlaneFillColor=#E6E6E6;labelBackgroundColor=none;strokeColor=#788AA3;fontColor=#46495D;" vertex="1" parent="NWQVJ_j_wXv8ozggGAOu-11">
          <mxGeometry x="30" width="210" height="30" as="geometry">
            <mxRectangle width="210" height="30" as="alternateBounds" />
          </mxGeometry>
        </mxCell>
        <mxCell id="NWQVJ_j_wXv8ozggGAOu-14" value="" style="shape=tableRow;horizontal=0;startSize=0;swimlaneHead=0;swimlaneBody=0;fillColor=none;collapsible=0;dropTarget=0;points=[[0,0.5],[1,0.5]];portConstraint=eastwest;top=0;left=0;right=0;bottom=0;fontStyle=1;strokeWidth=2;swimlaneFillColor=#E6E6E6;labelBackgroundColor=none;strokeColor=#788AA3;fontColor=#46495D;" vertex="1" parent="NWQVJ_j_wXv8ozggGAOu-7">
          <mxGeometry y="90" width="240" height="30" as="geometry" />
        </mxCell>
        <mxCell id="NWQVJ_j_wXv8ozggGAOu-15" value="FK" style="shape=partialRectangle;connectable=0;fillColor=none;top=0;left=0;bottom=0;right=0;editable=1;overflow=hidden;whiteSpace=wrap;html=1;fontStyle=1;strokeWidth=2;swimlaneFillColor=#E6E6E6;labelBackgroundColor=none;strokeColor=#788AA3;fontColor=#46495D;" vertex="1" parent="NWQVJ_j_wXv8ozggGAOu-14">
          <mxGeometry width="30" height="30" as="geometry">
            <mxRectangle width="30" height="30" as="alternateBounds" />
          </mxGeometry>
        </mxCell>
        <mxCell id="NWQVJ_j_wXv8ozggGAOu-16" value="video_id INT&amp;nbsp;N.N" style="shape=partialRectangle;connectable=0;fillColor=none;top=0;left=0;bottom=0;right=0;align=left;spacingLeft=6;overflow=hidden;whiteSpace=wrap;html=1;fontStyle=1;strokeWidth=2;swimlaneFillColor=#E6E6E6;labelBackgroundColor=none;strokeColor=#788AA3;fontColor=#46495D;" vertex="1" parent="NWQVJ_j_wXv8ozggGAOu-14">
          <mxGeometry x="30" width="210" height="30" as="geometry">
            <mxRectangle width="210" height="30" as="alternateBounds" />
          </mxGeometry>
        </mxCell>
        <mxCell id="NWQVJ_j_wXv8ozggGAOu-29" value="" style="edgeStyle=entityRelationEdgeStyle;fontSize=12;html=1;endArrow=ERzeroToMany;startArrow=ERmandOne;rounded=0;strokeColor=#788AA3;fontColor=#46495D;fillColor=#B2C9AB;" edge="1" parent="1" source="FIubQ1Pt_erhtiENu1x_-18" target="NWQVJ_j_wXv8ozggGAOu-11">
          <mxGeometry width="100" height="100" relative="1" as="geometry">
            <mxPoint x="260" y="375" as="sourcePoint" />
            <mxPoint x="340" y="795" as="targetPoint" />
            <Array as="points">
              <mxPoint x="380" y="430" />
              <mxPoint x="-80" y="90" />
              <mxPoint x="-130" y="310" />
              <mxPoint x="250" y="670" />
              <mxPoint x="310" y="660" />
            </Array>
          </mxGeometry>
        </mxCell>
        <mxCell id="NWQVJ_j_wXv8ozggGAOu-30" value="" style="edgeStyle=entityRelationEdgeStyle;fontSize=12;html=1;endArrow=ERzeroToMany;startArrow=ERmandOne;rounded=0;strokeColor=#788AA3;fontColor=#46495D;fillColor=#B2C9AB;" edge="1" parent="1" source="FIubQ1Pt_erhtiENu1x_-5" target="NWQVJ_j_wXv8ozggGAOu-14">
          <mxGeometry width="100" height="100" relative="1" as="geometry">
            <mxPoint x="260" y="270" as="sourcePoint" />
            <mxPoint x="260" y="720" as="targetPoint" />
            <Array as="points">
              <mxPoint x="-550" y="220" />
              <mxPoint x="-600" y="440" />
              <mxPoint x="-220" y="800" />
              <mxPoint x="-160" y="790" />
            </Array>
          </mxGeometry>
        </mxCell>
      </root>
    </mxGraphModel>
  </diagram>
</mxfile>
